<svg width="280" height="259" viewBox="0 0 280 259" fill="none" xmlns="http://www.w3.org/2000/svg">
<rect width="280" height="259" fill="black"/>
<rect width="280" height="259" fill="white"/>
<g filter="url(#filter0_dd_0_1)">
<path d="M84.3594 99.625C81.7969 99.625 80.5156 98.4688 80.5156 96.1562C80.5156 95 81.3906 93.2812 83.1406 91C84.8906 88.6875 86.0312 86.6875 86.5625 85C87.0938 83.2812 87.6875 82.2031 88.3438 81.7656C89 81.3281 89.8281 81.1094 90.8281 81.1094C91.8281 81.1094 92.625 81.4688 93.2188 82.1875C93.8438 82.9062 94.1875 83.7656 94.25 84.7656H104.938C107.719 84.7656 110.375 84.6562 112.906 84.4375C115.438 84.2188 117.203 84.1094 118.203 84.1094C122.609 84.1094 124.812 86.0781 124.812 90.0156C124.812 90.4531 124.719 92.0781 124.531 94.8906C124.344 97.7031 124.25 101.516 124.25 106.328V124.891C124.25 132.453 123.406 138.266 121.719 142.328C118.562 149.703 112.922 154.469 104.797 156.625C102.172 157.344 99.1719 157.703 95.7969 157.703C92.4219 157.703 89.2969 157.094 86.4219 155.875C83.5469 154.656 81.1406 153.047 79.2031 151.047C75.2969 147.016 73.3438 142.344 73.3438 137.031C73.3438 131.719 75 127.094 78.3125 123.156C81.625 119.188 85.8281 117.203 90.9219 117.203C93.5469 117.203 95.5781 117.719 97.0156 118.75C98.4531 119.781 99.1719 121.109 99.1719 122.734C99.1719 124.359 98.6719 125.641 97.6719 126.578C96.7031 127.484 95.5938 127.938 94.3438 127.938C93.0938 127.938 92.0781 127.688 91.2969 127.188C90.5156 126.688 89.7031 126.438 88.8594 126.438C86.8594 126.438 85.2188 127.375 83.9375 129.25C82.6562 131.125 82.0156 133.266 82.0156 135.672C82.0156 140.078 83.3906 143.594 86.1406 146.219C88.8906 148.844 92.3906 150.156 96.6406 150.156C103.641 150.156 108.781 147.656 112.062 142.656C114 139.75 115.078 136.25 115.297 132.156C115.453 129.781 115.531 127.188 115.531 124.375V92.125C105.375 92.2188 99.2188 92.5 97.0625 92.9688C94.9062 93.4062 93.2188 93.875 92 94.375C90.8125 94.875 89.5469 95.875 88.2031 97.375C86.8594 98.875 85.5781 99.625 84.3594 99.625ZM156.5 128.359C163.406 133.672 167.266 136.734 168.078 137.547L169.766 139.281C170.734 140.188 171.547 140.641 172.203 140.641C172.859 140.641 173.438 140.484 173.938 140.172C174.438 139.828 175.031 139.297 175.719 138.578C176.438 137.828 177.234 137.094 178.109 136.375L188.562 128.312L175.766 100.703C174.922 98.8594 174.25 97.4688 173.75 96.5312C173.281 95.5938 172.844 95.125 172.438 95.125C172.062 95.125 171.672 95.4688 171.266 96.1562C170.891 96.8125 170.391 97.8438 169.766 99.25L156.5 128.359ZM140.375 156.625L133.438 157C131 157 129.781 156.016 129.781 154.047C129.781 152.766 130.797 151.344 132.828 149.781C136.453 146.906 139.828 142.438 142.953 136.375L159.266 103.562L165.078 91.2344C166.453 88.2031 167.625 86.1094 168.594 84.9531C169.594 83.7656 170.859 83.1719 172.391 83.1719C173.922 83.1719 175.203 83.6875 176.234 84.7188C177.297 85.75 178.562 87.8438 180.031 91L190.297 112.938C199.078 130.375 203.75 139.609 204.312 140.641L206.047 143.781C207.422 146.188 208.375 147.641 208.906 148.141C209.438 148.641 209.984 149.062 210.547 149.406C213.016 150.875 214.25 152.188 214.25 153.344C214.25 155.781 213.031 157 210.594 157L203.516 156.672L194 157C192.406 157 191.156 156.688 190.25 156.062C189.344 155.438 188.891 154.5 188.891 153.25C188.891 150.688 191.734 149.406 197.422 149.406C197.766 149.406 198.109 149.406 198.453 149.406C198.797 149.406 199.141 149.391 199.484 149.359C198.641 148.141 197.766 146.594 196.859 144.719L192.078 134.969L183.266 141.812C180.391 144.031 178.25 146 176.844 147.719C175.438 149.406 174.156 150.25 173 150.25C171.844 150.25 170.922 149.969 170.234 149.406C169.578 148.844 168.984 148.25 168.453 147.625L166.484 145.375C165.922 144.719 165.172 144.016 164.234 143.266L157.016 137.875C155.547 136.812 154.047 135.672 152.516 134.453L145.625 149.641H147.031C150.094 149.641 152.312 149.922 153.688 150.484C155.062 151.016 155.75 152.047 155.75 153.578C155.75 155.891 154.156 157.047 150.969 157.047L140.375 156.625Z" fill="black"/>
</g>
<defs>
<filter id="filter0_dd_0_1" x="55.3438" y="71.1094" width="176.906" height="112.594" filterUnits="userSpaceOnUse" color-interpolation-filters="sRGB">
<feFlood flood-opacity="0" result="BackgroundImageFix"/>
<feColorMatrix in="SourceAlpha" type="matrix" values="0 0 0 0 0 0 0 0 0 0 0 0 0 0 0 0 0 0 127 0" result="hardAlpha"/>
<feOffset dy="4"/>
<feGaussianBlur stdDeviation="2"/>
<feColorMatrix type="matrix" values="0 0 0 0 0 0 0 0 0 0 0 0 0 0 0 0 0 0 0.3 0"/>
<feBlend mode="normal" in2="BackgroundImageFix" result="effect1_dropShadow_0_1"/>
<feColorMatrix in="SourceAlpha" type="matrix" values="0 0 0 0 0 0 0 0 0 0 0 0 0 0 0 0 0 0 127 0" result="hardAlpha"/>
<feMorphology radius="6" operator="dilate" in="SourceAlpha" result="effect2_dropShadow_0_1"/>
<feOffset dy="8"/>
<feGaussianBlur stdDeviation="6"/>
<feColorMatrix type="matrix" values="0 0 0 0 0 0 0 0 0 0 0 0 0 0 0 0 0 0 0.15 0"/>
<feBlend mode="normal" in2="effect1_dropShadow_0_1" result="effect2_dropShadow_0_1"/>
<feBlend mode="normal" in="SourceGraphic" in2="effect2_dropShadow_0_1" result="shape"/>
</filter>
</defs>
</svg>
