<svg width="178" height="113" viewBox="0 0 178 113" fill="none" xmlns="http://www.w3.org/2000/svg">
<g filter="url(#filter0_dd_0_3)">
<path d="M29.3125 28.625C26.75 28.625 25.4688 27.4688 25.4688 25.1562C25.4688 24 26.3438 22.2813 28.0938 20C29.8438 17.6875 30.9844 15.6875 31.5156 14C32.0469 12.2812 32.6406 11.2031 33.2969 10.7656C33.9531 10.3281 34.7812 10.1094 35.7812 10.1094C36.7812 10.1094 37.5781 10.4688 38.1719 11.1875C38.7969 11.9062 39.1406 12.7656 39.2031 13.7656H49.8906C52.6719 13.7656 55.3281 13.6563 57.8594 13.4375C60.3906 13.2187 62.1562 13.1094 63.1562 13.1094C67.5625 13.1094 69.7656 15.0781 69.7656 19.0156C69.7656 19.4531 69.6719 21.0781 69.4844 23.8906C69.2969 26.7031 69.2031 30.5156 69.2031 35.3281V53.8906C69.2031 61.4531 68.3594 67.2656 66.6719 71.3281C63.5156 78.7031 57.875 83.4688 49.75 85.625C47.125 86.3438 44.125 86.7031 40.75 86.7031C37.375 86.7031 34.25 86.0938 31.375 84.875C28.5 83.6562 26.0938 82.0469 24.1562 80.0469C20.25 76.0156 18.2969 71.3438 18.2969 66.0312C18.2969 60.7188 19.9531 56.0938 23.2656 52.1562C26.5781 48.1875 30.7812 46.2031 35.875 46.2031C38.5 46.2031 40.5312 46.7188 41.9688 47.75C43.4062 48.7812 44.125 50.1094 44.125 51.7344C44.125 53.3594 43.625 54.6406 42.625 55.5781C41.6562 56.4844 40.5469 56.9375 39.2969 56.9375C38.0469 56.9375 37.0312 56.6875 36.25 56.1875C35.4688 55.6875 34.6562 55.4375 33.8125 55.4375C31.8125 55.4375 30.1719 56.375 28.8906 58.25C27.6094 60.125 26.9688 62.2656 26.9688 64.6719C26.9688 69.0781 28.3438 72.5938 31.0938 75.2188C33.8438 77.8438 37.3438 79.1562 41.5938 79.1562C48.5938 79.1562 53.7344 76.6562 57.0156 71.6562C58.9531 68.75 60.0312 65.25 60.25 61.1562C60.4062 58.7812 60.4844 56.1875 60.4844 53.375V21.125C50.3281 21.2188 44.1719 21.5 42.0156 21.9688C39.8594 22.4062 38.1719 22.875 36.9531 23.375C35.7656 23.875 34.5 24.875 33.1562 26.375C31.8125 27.875 30.5312 28.625 29.3125 28.625ZM101.453 57.3594C108.359 62.6719 112.219 65.7344 113.031 66.5469L114.719 68.2812C115.688 69.1875 116.5 69.6406 117.156 69.6406C117.812 69.6406 118.391 69.4844 118.891 69.1719C119.391 68.8281 119.984 68.2969 120.672 67.5781C121.391 66.8281 122.188 66.0938 123.062 65.375L133.516 57.3125L120.719 29.7031C119.875 27.8594 119.203 26.4688 118.703 25.5312C118.234 24.5938 117.797 24.125 117.391 24.125C117.016 24.125 116.625 24.4688 116.219 25.1562C115.844 25.8125 115.344 26.8438 114.719 28.25L101.453 57.3594ZM85.3281 85.625L78.3906 86C75.9531 86 74.7344 85.0156 74.7344 83.0469C74.7344 81.7656 75.75 80.3438 77.7812 78.7812C81.4062 75.9062 84.7812 71.4375 87.9062 65.375L104.219 32.5625L110.031 20.2344C111.406 17.2031 112.578 15.1094 113.547 13.9531C114.547 12.7656 115.812 12.1719 117.344 12.1719C118.875 12.1719 120.156 12.6875 121.188 13.7188C122.25 14.75 123.516 16.8438 124.984 20L135.25 41.9375C144.031 59.375 148.703 68.6094 149.266 69.6406L151 72.7812C152.375 75.1875 153.328 76.6406 153.859 77.1406C154.391 77.6406 154.938 78.0625 155.5 78.4062C157.969 79.875 159.203 81.1875 159.203 82.3438C159.203 84.7812 157.984 86 155.547 86L148.469 85.6719L138.953 86C137.359 86 136.109 85.6875 135.203 85.0625C134.297 84.4375 133.844 83.5 133.844 82.25C133.844 79.6875 136.688 78.4062 142.375 78.4062C142.719 78.4062 143.062 78.4062 143.406 78.4062C143.75 78.4062 144.094 78.3906 144.438 78.3594C143.594 77.1406 142.719 75.5938 141.812 73.7188L137.031 63.9688L128.219 70.8125C125.344 73.0312 123.203 75 121.797 76.7188C120.391 78.4062 119.109 79.25 117.953 79.25C116.797 79.25 115.875 78.9688 115.188 78.4062C114.531 77.8438 113.938 77.25 113.406 76.625L111.438 74.375C110.875 73.7188 110.125 73.0156 109.188 72.2656L101.969 66.875C100.5 65.8125 99 64.6719 97.4688 63.4531L90.5781 78.6406H91.9844C95.0469 78.6406 97.2656 78.9219 98.6406 79.4844C100.016 80.0156 100.703 81.0469 100.703 82.5781C100.703 84.8906 99.1094 86.0469 95.9219 86.0469L85.3281 85.625Z" fill="black"/>
</g>
<defs>
<filter id="filter0_dd_0_3" x="0.296875" y="0.109375" width="176.906" height="112.594" filterUnits="userSpaceOnUse" color-interpolation-filters="sRGB">
<feFlood flood-opacity="0" result="BackgroundImageFix"/>
<feColorMatrix in="SourceAlpha" type="matrix" values="0 0 0 0 0 0 0 0 0 0 0 0 0 0 0 0 0 0 127 0" result="hardAlpha"/>
<feOffset dy="4"/>
<feGaussianBlur stdDeviation="2"/>
<feColorMatrix type="matrix" values="0 0 0 0 0 0 0 0 0 0 0 0 0 0 0 0 0 0 0.3 0"/>
<feBlend mode="normal" in2="BackgroundImageFix" result="effect1_dropShadow_0_3"/>
<feColorMatrix in="SourceAlpha" type="matrix" values="0 0 0 0 0 0 0 0 0 0 0 0 0 0 0 0 0 0 127 0" result="hardAlpha"/>
<feMorphology radius="6" operator="dilate" in="SourceAlpha" result="effect2_dropShadow_0_3"/>
<feOffset dy="8"/>
<feGaussianBlur stdDeviation="6"/>
<feColorMatrix type="matrix" values="0 0 0 0 0 0 0 0 0 0 0 0 0 0 0 0 0 0 0.15 0"/>
<feBlend mode="normal" in2="effect1_dropShadow_0_3" result="effect2_dropShadow_0_3"/>
<feBlend mode="normal" in="SourceGraphic" in2="effect2_dropShadow_0_3" result="shape"/>
</filter>
</defs>
</svg>
